<?xml version="1.0" encoding="UTF-8" standalone="no"?>
<!-- Created with Inkscape (http://www.inkscape.org/) -->

<svg
   xmlns:dc="http://purl.org/dc/elements/1.1/"
   xmlns:cc="http://creativecommons.org/ns#"
   xmlns:rdf="http://www.w3.org/1999/02/22-rdf-syntax-ns#"
   xmlns:svg="http://www.w3.org/2000/svg"
   xmlns="http://www.w3.org/2000/svg"
   xmlns:xlink="http://www.w3.org/1999/xlink"
   xmlns:sodipodi="http://sodipodi.sourceforge.net/DTD/sodipodi-0.dtd"
   xmlns:inkscape="http://www.inkscape.org/namespaces/inkscape"
   width="210mm"
   height="297mm"
   viewBox="0 0 210 297"
   version="1.1"
   id="svg8"
   inkscape:version="0.92.4 (5da689c313, 2019-01-14)"
   sodipodi:docname="pbutton.svg">
  <defs
     id="defs2">
    <linearGradient
       inkscape:collect="always"
       id="linearGradient2450">
      <stop
         style="stop-color:#000080;stop-opacity:1"
         offset="0"
         id="stop2446" />
      <stop
         style="stop-color:#800000;stop-opacity:1"
         offset="1"
         id="stop2448" />
    </linearGradient>
    <filter
       style="color-interpolation-filters:sRGB;"
       inkscape:label="Channel Transparency"
       id="filter38">
      <feGaussianBlur
         in="SourceAlpha"
         stdDeviation="6"
         result="blur"
         id="feGaussianBlur28" />
      <feSpecularLighting
         in="blur"
         specularExponent="25"
         specularConstant="1"
         surfaceScale="10"
         lighting-color="rgb(255,255,255)"
         result="specular"
         id="feSpecularLighting32">
        <feDistantLight
           elevation="45"
           azimuth="235"
           id="feDistantLight30" />
      </feSpecularLighting>
      <feComposite
         in="specular"
         in2="SourceGraphic"
         k3="1"
         k2="1"
         operator="arithmetic"
         result="composite1"
         id="feComposite34" />
      <feComposite
         in="composite1"
         in2="SourceAlpha"
         operator="in"
         result="fbSourceGraphic"
         id="feComposite36" />
      <feColorMatrix
         result="fbSourceGraphicAlpha"
         in="fbSourceGraphic"
         values="0 0 0 -1 0 0 0 0 -1 0 0 0 0 -1 0 0 0 0 1 0"
         id="feColorMatrix286" />
      <feFlood
         id="feFlood288"
         flood-opacity="0.498039"
         flood-color="rgb(0,0,0)"
         result="flood"
         in="fbSourceGraphic" />
      <feComposite
         in2="fbSourceGraphic"
         id="feComposite290"
         in="flood"
         operator="in"
         result="composite1" />
      <feGaussianBlur
         id="feGaussianBlur292"
         in="composite1"
         stdDeviation="3"
         result="blur" />
      <feOffset
         id="feOffset294"
         dx="6"
         dy="6"
         result="offset" />
      <feComposite
         in2="offset"
         id="feComposite296"
         in="fbSourceGraphic"
         operator="over"
         result="fbSourceGraphic" />
      <feColorMatrix
         result="fbSourceGraphicAlpha"
         in="fbSourceGraphic"
         values="0 0 0 -1 0 0 0 0 -1 0 0 0 0 -1 0 0 0 0 1 0"
         id="feColorMatrix2224" />
      <feColorMatrix
         id="feColorMatrix2226"
         values="1 0 0 0 0 0 1 0 0 0 0 0 1 0 0 -1 0.5 0.5 1 0 "
         in="fbSourceGraphic"
         result="colormatrix" />
      <feComposite
         in2="fbSourceGraphic"
         id="feComposite2228"
         in="colormatrix"
         operator="in"
         result="composite1" />
    </filter>
    <filter
       style="color-interpolation-filters:sRGB;"
       inkscape:label="Channel Transparency"
       id="filter50">
      <feGaussianBlur
         in="SourceAlpha"
         stdDeviation="6"
         result="blur"
         id="feGaussianBlur40" />
      <feSpecularLighting
         in="blur"
         specularExponent="25"
         specularConstant="1"
         surfaceScale="10"
         lighting-color="rgb(255,255,255)"
         result="specular"
         id="feSpecularLighting44">
        <feDistantLight
           elevation="45"
           azimuth="235"
           id="feDistantLight42" />
      </feSpecularLighting>
      <feComposite
         in="specular"
         in2="SourceGraphic"
         k3="1"
         k2="1"
         operator="arithmetic"
         result="composite1"
         id="feComposite46" />
      <feComposite
         in="composite1"
         in2="SourceAlpha"
         operator="in"
         result="fbSourceGraphic"
         id="feComposite48" />
      <feColorMatrix
         result="fbSourceGraphicAlpha"
         in="fbSourceGraphic"
         values="0 0 0 -1 0 0 0 0 -1 0 0 0 0 -1 0 0 0 0 1 0"
         id="feColorMatrix298" />
      <feFlood
         id="feFlood300"
         flood-opacity="0.498039"
         flood-color="rgb(0,0,0)"
         result="flood"
         in="fbSourceGraphic" />
      <feComposite
         in2="fbSourceGraphic"
         id="feComposite302"
         in="flood"
         operator="in"
         result="composite1" />
      <feGaussianBlur
         id="feGaussianBlur304"
         in="composite1"
         stdDeviation="3"
         result="blur" />
      <feOffset
         id="feOffset306"
         dx="6"
         dy="6"
         result="offset" />
      <feComposite
         in2="offset"
         id="feComposite308"
         in="fbSourceGraphic"
         operator="over"
         result="fbSourceGraphic" />
      <feColorMatrix
         result="fbSourceGraphicAlpha"
         in="fbSourceGraphic"
         values="0 0 0 -1 0 0 0 0 -1 0 0 0 0 -1 0 0 0 0 1 0"
         id="feColorMatrix2230" />
      <feColorMatrix
         id="feColorMatrix2232"
         values="1 0 0 0 0 0 1 0 0 0 0 0 1 0 0 -1 0.5 0.5 1 0 "
         in="fbSourceGraphic"
         result="colormatrix" />
      <feComposite
         in2="fbSourceGraphic"
         id="feComposite2234"
         in="colormatrix"
         operator="in"
         result="composite1" />
    </filter>
    <filter
       style="color-interpolation-filters:sRGB;"
       inkscape:label="Channel Transparency"
       id="filter62">
      <feGaussianBlur
         in="SourceAlpha"
         stdDeviation="6"
         result="blur"
         id="feGaussianBlur52" />
      <feSpecularLighting
         in="blur"
         specularExponent="25"
         specularConstant="1"
         surfaceScale="10"
         lighting-color="rgb(255,255,255)"
         result="specular"
         id="feSpecularLighting56">
        <feDistantLight
           elevation="45"
           azimuth="235"
           id="feDistantLight54" />
      </feSpecularLighting>
      <feComposite
         in="specular"
         in2="SourceGraphic"
         k3="1"
         k2="1"
         operator="arithmetic"
         result="composite1"
         id="feComposite58" />
      <feComposite
         in="composite1"
         in2="SourceAlpha"
         operator="in"
         result="fbSourceGraphic"
         id="feComposite60" />
      <feColorMatrix
         result="fbSourceGraphicAlpha"
         in="fbSourceGraphic"
         values="0 0 0 -1 0 0 0 0 -1 0 0 0 0 -1 0 0 0 0 1 0"
         id="feColorMatrix310" />
      <feFlood
         id="feFlood312"
         flood-opacity="0.498039"
         flood-color="rgb(0,0,0)"
         result="flood"
         in="fbSourceGraphic" />
      <feComposite
         in2="fbSourceGraphic"
         id="feComposite314"
         in="flood"
         operator="in"
         result="composite1" />
      <feGaussianBlur
         id="feGaussianBlur316"
         in="composite1"
         stdDeviation="3"
         result="blur" />
      <feOffset
         id="feOffset318"
         dx="6"
         dy="6"
         result="offset" />
      <feComposite
         in2="offset"
         id="feComposite320"
         in="fbSourceGraphic"
         operator="over"
         result="fbSourceGraphic" />
      <feColorMatrix
         result="fbSourceGraphicAlpha"
         in="fbSourceGraphic"
         values="0 0 0 -1 0 0 0 0 -1 0 0 0 0 -1 0 0 0 0 1 0"
         id="feColorMatrix2236" />
      <feColorMatrix
         id="feColorMatrix2238"
         values="1 0 0 0 0 0 1 0 0 0 0 0 1 0 0 -1 0.5 0.5 1 0 "
         in="fbSourceGraphic"
         result="colormatrix" />
      <feComposite
         in2="fbSourceGraphic"
         id="feComposite2240"
         in="colormatrix"
         operator="in"
         result="composite1" />
    </filter>
    <filter
       style="color-interpolation-filters:sRGB;"
       inkscape:label="Drop Shadow"
       id="filter423">
      <feGaussianBlur
         in="SourceAlpha"
         stdDeviation="6"
         result="blur"
         id="feGaussianBlur413" />
      <feSpecularLighting
         in="blur"
         specularExponent="25"
         specularConstant="1"
         surfaceScale="10"
         lighting-color="#ffffff"
         result="specular"
         id="feSpecularLighting417">
        <feDistantLight
           elevation="45"
           azimuth="235"
           id="feDistantLight415" />
      </feSpecularLighting>
      <feComposite
         k4="0"
         k1="0"
         in="specular"
         in2="SourceGraphic"
         k3="1"
         k2="1"
         operator="arithmetic"
         result="composite1"
         id="feComposite419" />
      <feComposite
         in="composite1"
         in2="SourceAlpha"
         operator="in"
         result="fbSourceGraphic"
         id="feComposite421" />
      <feColorMatrix
         result="fbSourceGraphicAlpha"
         in="fbSourceGraphic"
         values="0 0 0 -1 0 0 0 0 -1 0 0 0 0 -1 0 0 0 0 1 0"
         id="feColorMatrix1301" />
      <feFlood
         id="feFlood1303"
         flood-opacity="0.498039"
         flood-color="rgb(0,0,0)"
         result="flood"
         in="fbSourceGraphic" />
      <feComposite
         in2="fbSourceGraphic"
         id="feComposite1305"
         in="flood"
         operator="in"
         result="composite1" />
      <feGaussianBlur
         id="feGaussianBlur1307"
         in="composite1"
         stdDeviation="3"
         result="blur" />
      <feOffset
         id="feOffset1309"
         dx="6"
         dy="6"
         result="offset" />
      <feComposite
         in2="offset"
         id="feComposite1311"
         in="fbSourceGraphic"
         operator="over"
         result="fbSourceGraphic" />
      <feColorMatrix
         result="fbSourceGraphicAlpha"
         in="fbSourceGraphic"
         values="0 0 0 -1 0 0 0 0 -1 0 0 0 0 -1 0 0 0 0 1 0"
         id="feColorMatrix3606" />
      <feColorMatrix
         id="feColorMatrix3608"
         values="1 0 0 0 0 0 1 0 0 0 0 0 1 0 0 -1 0.5 0.5 1 0 "
         in="fbSourceGraphic"
         result="colormatrix" />
      <feComposite
         in2="fbSourceGraphic"
         id="feComposite3610"
         in="colormatrix"
         operator="in"
         result="fbSourceGraphic" />
      <feColorMatrix
         result="fbSourceGraphicAlpha"
         in="fbSourceGraphic"
         values="0 0 0 -1 0 0 0 0 -1 0 0 0 0 -1 0 0 0 0 1 0"
         id="feColorMatrix2394" />
      <feFlood
         id="feFlood2396"
         flood-opacity="0.498039"
         flood-color="rgb(0,0,0)"
         result="flood"
         in="fbSourceGraphic" />
      <feComposite
         in2="fbSourceGraphic"
         id="feComposite2398"
         in="flood"
         operator="in"
         result="composite1" />
      <feGaussianBlur
         id="feGaussianBlur2400"
         in="composite1"
         stdDeviation="3"
         result="blur" />
      <feOffset
         id="feOffset2402"
         dx="6"
         dy="6"
         result="offset" />
      <feComposite
         in2="offset"
         id="feComposite2404"
         in="fbSourceGraphic"
         operator="over"
         result="composite2" />
    </filter>
    <radialGradient
       inkscape:collect="always"
       xlink:href="#linearGradient2450"
       id="radialGradient2452"
       cx="41.432884"
       cy="181.5414"
       fx="41.432884"
       fy="181.5414"
       r="90.610809"
       gradientTransform="matrix(1.4015989,-0.39211393,0.26564744,0.94955611,-32.970911,-35.274243)"
       gradientUnits="userSpaceOnUse" />
  </defs>
  <sodipodi:namedview
     id="base"
     pagecolor="#ffffff"
     bordercolor="#666666"
     borderopacity="1.0"
     inkscape:pageopacity="0.0"
     inkscape:pageshadow="2"
     inkscape:zoom="0.35"
     inkscape:cx="250"
     inkscape:cy="560"
     inkscape:document-units="mm"
     inkscape:current-layer="layer1"
     showgrid="false"
     inkscape:window-width="1366"
     inkscape:window-height="746"
     inkscape:window-x="-8"
     inkscape:window-y="-8"
     inkscape:window-maximized="1" />
  <metadata
     id="metadata5">
    <rdf:RDF>
      <cc:Work
         rdf:about="">
        <dc:format>image/svg+xml</dc:format>
        <dc:type
           rdf:resource="http://purl.org/dc/dcmitype/StillImage" />
        <dc:title />
      </cc:Work>
    </rdf:RDF>
  </metadata>
  <g
     inkscape:label="Layer 1"
     inkscape:groupmode="layer"
     id="layer1">
    <rect
       ry="41.219749"
       y="7.0788531"
       x="28.834188"
       height="148.90601"
       width="151.01801"
       id="rect16"
       style="opacity:1;fill:url(#radialGradient2452);fill-opacity:1;stroke:none;stroke-width:0.02475753;stroke-linecap:round;stroke-linejoin:miter;stroke-miterlimit:4;stroke-dasharray:none;stroke-dashoffset:94.79055786;stroke-opacity:1;paint-order:markers stroke fill;filter:url(#filter62)" />
    <g
       id="g81"
       transform="translate(4.5357143,-49.136905)">
      <rect
         ry="38.917881"
         y="60.331459"
         x="27.898001"
         height="140.59053"
         width="144.21443"
         id="rect18"
         style="opacity:1;fill:#ffffff;fill-opacity:1;stroke:none;stroke-width:0.02350819;stroke-linecap:round;stroke-linejoin:miter;stroke-miterlimit:4;stroke-dasharray:none;stroke-dashoffset:94.79055786;stroke-opacity:1;paint-order:markers stroke fill;filter:url(#filter50)" />
    </g>
    <path
       style="opacity:1;fill:#000000;fill-opacity:1;stroke:none;stroke-width:0.02645833;stroke-linecap:round;stroke-linejoin:miter;stroke-miterlimit:4;stroke-dasharray:none;stroke-dashoffset:94.79055786;stroke-opacity:1;paint-order:markers stroke fill;filter:url(#filter423)"
       id="path363"
       d="m -159.96962,73.898849 c -0.71868,2.87296 -0.84071,3.09034 -1.27938,6.67448 -0.80178,6.55087 -1.20679,13.00983 -1.54143,19.614841 -0.52685,10.39912 -0.79611,21.51231 -1.10523,31.87239 -1.19642,36.50205 0.18518,73.00199 1.4942,109.47698 0.4871,11.65939 0.76054,23.33068 1.37791,34.98477 0.11332,2.13915 0.29945,4.27389 0.42914,6.41211 0.0521,0.8586 0.8436,2.11889 0.11615,2.57794 -3.13086,1.97569 -6.93048,2.60591 -10.39572,3.90886 -0.43697,-1.89688 -0.95149,-3.77755 -1.31091,-5.69064 -1.24775,-6.64152 -3.29197,-20.80149 -4.179,-26.55533 -3.09185,-20.05569 -6.34918,-40.08036 -9.36329,-60.14831 -1.01413,-7.19976 -2.07768,-14.39271 -3.04239,-21.59925 -0.92729,-6.92703 -1.80215,-13.86122 -2.63346,-20.80043 -2.1532,-17.97328 -4.14227,-36.02072 -3.80394,-54.15831 0.10092,-5.410311 0.61989,-10.804741 0.92983,-16.207111 1.39853,-13.98176 4.03766,-27.84396 9.12101,-40.98731 2.3924,-6.18573 5.73154,-12.98889 9.73383,-18.35957 1.76113,-2.36325 3.93998,-4.38439 5.90997,-6.57658 9.68587,-7.05223 24.66708,-18.60587043 37.33026,-12.1880604 6.37655,3.23169 8.57078,7.8057004 12.63402,13.4029504 1.57953,3.44284 3.3899,6.78887 4.73861,10.32851 6.15151,16.14452 8.86911,36.32558 7.02366,53.48051 -0.51544,4.79146 -1.7738,9.47358 -2.66069,14.21037 -1.5098,4.402421 -2.74942,8.906971 -4.5294,13.207261 -4.28772,10.35877 -10.38799,20.21077 -18.11933,28.35562 -4.60524,4.85154 -6.21516,5.63694 -11.40152,9.28728 -5.72782,0.51661 -10.91931,8.02435 -17.35801,8.74733 -0.97321,0.10928 -2.06985,0.0458 -2.89935,-0.47479 -1.71548,-1.07661 -1.84953,-3.64911 -1.71317,-5.3172 0.0757,-0.9266 0.44339,-1.80573 0.66508,-2.7086 4.88564,-8.31916 11.32276,-8.72349 18.84372,-8.19 3.88667,0.20289 7.78482,0.5589 11.68124,0.42461 2.77155,-0.0955 4.72364,-0.37432 7.48426,-0.68875 5.9694,-0.85854 11.7497,-2.59271 17.44144,-4.53464 1.62903,-0.64617 3.39678,-0.9351 5.02706,-1.56859 0.64703,-0.25142 1.23975,-0.62498 1.86349,-0.92962 0.28682,-0.16809 0.57364,-0.33617 0.86045,-0.50425 0,0 -8.67486,6.98674 -8.67486,6.98674 v 0 c -0.29932,0.1499 -0.59865,0.29981 -0.89798,0.44971 -2.1963,0.98397 -4.53682,1.53766 -6.82148,2.27702 -5.64786,1.80056 -11.39118,3.34494 -17.27908,4.1285 -3.18914,0.33846 -4.41143,0.52773 -7.60224,0.63291 -3.99082,0.13154 -7.9777,-0.16397 -11.96386,-0.2938 -1.68125,-0.063 -3.50249,-0.2617 -5.16863,0.10776 -0.51349,0.11387 -1.93523,0.78357 -1.50084,0.48703 9.97173,-6.80708 9.57361,-6.62306 6.47019,-3.41345 -0.27781,0.80172 -0.69063,1.56878 -0.83344,2.40517 -0.15708,0.91999 -0.31029,3.34708 0.9426,4.0186 0.71051,0.38081 1.6098,0.37205 2.4059,0.24532 1.2549,-0.19978 3.85499,-2.45232 3.61695,-1.20411 -0.29016,1.52151 -2.58406,1.70864 -3.87608,2.56295 5.45431,-3.62114 7.17547,-4.40905 12.05211,-9.2834 8.06616,-8.06236 14.51164,-17.92622 19.02039,-28.38605 1.8392,-4.26676 3.11129,-8.75623 4.66694,-13.13434 0.91538,-4.701141 2.21658,-9.343351 2.74612,-14.103411 1.86838,-16.79483 -1.11559,-37.09373 -7.41216,-52.80431 -1.38328,-3.45143 -3.25647,-6.68572 -4.8847,-10.02858 -4.24172,-5.47039 -6.25541,-9.56957 -12.70484,-12.55839 -8.81515,-4.0851504 -5.2505,0.23835 -14.30842,-0.36022 -0.60673,-0.0401 1.4578,-1.8599904 0.92081,-1.5747204 -2.50341,1.3299204 -4.67507,3.2072904 -7.0126,4.8109404 -2.04887,2.16607 -4.30514,4.15328 -6.14661,6.49821 -9.66995,12.31376 -15.04592,29.16 -17.95724,44.30361 -0.96648,5.0273 -1.50207,10.12793 -2.25311,15.1919 -0.37177,5.41099 -0.95669,10.81155 -1.11532,16.23298 -0.33147,11.328631 0.33778,23.874331 1.2264,35.140451 0.93665,11.87509 2.80793,28.48541 4.33619,40.16566 0.94238,7.20242 2.04648,14.38275 3.06971,21.57413 3.56844,22.21321 3.04034,19.7063 7.00196,41.37479 1.10969,6.06962 2.21668,12.14021 3.41602,18.19276 1.61487,8.1496 3.48479,17.41551 5.90112,25.51023 0.51303,1.71864 1.25838,3.35918 1.88758,5.03877 -2.93674,2.15085 -5.48386,4.97407 -8.81022,6.45254 -0.87882,0.39061 0.55294,-1.85715 0.62825,-2.81591 0.17476,-2.22486 0.10524,-4.46242 0.11877,-6.69409 0.0717,-11.83402 -0.17636,-23.66859 -0.36237,-35.50018 -0.72861,-36.56039 -1.25293,-73.12389 -1.14554,-109.69301 -0.0303,-17.96197 -0.063,-14.72291 0.0415,-31.35432 0.0229,-3.63704 0.0759,-14.569211 0.24095,-19.050801 0.12752,-3.4617 0.20614,-3.66964 0.58924,-6.46194 0,0 10.06284,-4.85312 10.06284,-4.85312 z"
       inkscape:connector-curvature="0"
       transform="matrix(0.64025749,0,0,0.46668072,204.07997,13.494463)" />
  </g>
</svg>
